<?xml version="1.0" encoding="utf-8"?>
<!-- Generator: Adobe Illustrator 17.0.0, SVG Export Plug-In . SVG Version: 6.00 Build 0)  -->
<!DOCTYPE svg PUBLIC "-//W3C//DTD SVG 1.1//EN" "http://www.w3.org/Graphics/SVG/1.1/DTD/svg11.dtd">
<svg version="1.1" id="레이어_1" xmlns="http://www.w3.org/2000/svg" xmlns:xlink="http://www.w3.org/1999/xlink" x="0px"
	 y="0px" width="50px" height="50px" viewBox="0 0 50 50" enable-background="new 0 0 50 50" xml:space="preserve">
<g>
	<linearGradient id="SVGID_1_" gradientUnits="userSpaceOnUse" x1="1" y1="23.2631" x2="33.6831" y2="23.2631">
		<stop  offset="0" style="stop-color:#046536"/>
		<stop  offset="1" style="stop-color:#004529"/>
	</linearGradient>
	<path fill="url(#SVGID_1_)" d="M17.308,32.008c-0.092-0.159-0.262-0.257-0.445-0.257l-3.504,0.001c-0.567,0-1.09-0.302-1.374-0.793
		l-3.986-6.901c-0.283-0.491-0.284-1.095,0-1.586l3.983-6.902c0.283-0.491,0.807-0.793,1.374-0.793l7.969-0.001
		c0.567,0,1.09,0.302,1.374,0.793l3.986,6.901c0.283,0.491,0.284,1.095,0,1.586l-1.752,3.035c-0.092,0.159-0.092,0.355,0,0.514
		l2.8,4.849c0.198,0.343,0.692,0.342,0.89,0l4.847-8.398c0.283-0.491,0.283-1.095,0-1.586L26.091,9.69
		c-0.283-0.491-0.807-0.793-1.374-0.793L9.961,8.9c-0.567,0-1.09,0.303-1.374,0.793l-7.375,12.78c-0.283,0.491-0.283,1.095,0,1.586
		l7.38,12.777c0.283,0.491,0.807,0.793,1.374,0.793l9.697-0.002c0.396,0,0.643-0.428,0.445-0.771L17.308,32.008z"/>
	<linearGradient id="SVGID_2_" gradientUnits="userSpaceOnUse" x1="16.3169" y1="26.7369" x2="49" y2="26.7369">
		<stop  offset="0" style="stop-color:#046536"/>
		<stop  offset="1" style="stop-color:#004529"/>
	</linearGradient>
	<path fill="url(#SVGID_2_)" d="M48.787,25.941l-7.38-12.777c-0.283-0.491-0.807-0.793-1.374-0.793l-9.697,0.002
		c-0.396,0-0.643,0.428-0.445,0.771l2.801,4.849c0.092,0.159,0.261,0.257,0.445,0.257l3.504-0.001c0.567,0,1.09,0.302,1.374,0.793
		l3.986,6.901c0.283,0.491,0.284,1.095,0,1.586l-3.983,6.902c-0.283,0.491-0.807,0.793-1.374,0.793l-7.969,0.001
		c-0.567,0-1.09-0.302-1.374-0.793l-3.986-6.901c-0.283-0.491-0.284-1.095,0-1.586l1.751-3.035c0.092-0.159,0.092-0.355,0-0.514
		l-2.8-4.849c-0.198-0.343-0.692-0.343-0.89,0l-4.847,8.398c-0.283,0.491-0.283,1.095,0,1.586l7.38,12.777
		c0.283,0.491,0.807,0.793,1.374,0.793L40.039,41.1c0.567,0,1.09-0.303,1.374-0.793l7.375-12.78
		C49.071,27.036,49.071,26.432,48.787,25.941z"/>
</g>
</svg>
